<svg width="32" height="32" viewBox="0 0 32 32" fill="none" xmlns="http://www.w3.org/2000/svg">
<path d="M8.15762 13.2539L9.27692 7.13413H11.6095L9.53809 16.8937H7.09831L5.79105 11.3303L4.51071 16.8937H2.07754L0 7.13413H2.33918L3.45848 13.2539L4.79927 7.13413H6.79652L8.15762 13.2539Z" fill="#004B7F"/>
<path d="M15.0344 16.8932H12.6886V7.13413H15.0344V16.8932Z" fill="#004B7F"/>
<path d="M21.7039 14.2995C21.7039 13.9552 21.5825 13.687 21.3384 13.4952C21.0947 13.303 20.6673 13.1042 20.0547 12.8987C19.4422 12.6933 18.942 12.494 18.5534 12.3022C17.2891 11.6812 16.6562 10.8278 16.6562 9.74156C16.6562 9.20081 16.814 8.72381 17.129 8.31057C17.444 7.89732 17.8898 7.5757 18.466 7.34523C19.0426 7.11476 19.6901 7 20.4099 7C21.1296 7 21.7403 7.12515 22.2966 7.37546C22.853 7.62577 23.2851 7.98186 23.5935 8.44469C23.9019 8.90705 24.0558 9.43553 24.0558 10.0301H21.7101C21.7101 9.63247 21.5887 9.32407 21.3445 9.10493C21.1008 8.88627 20.7716 8.7767 20.356 8.7767C19.9404 8.7767 19.6042 8.86974 19.3605 9.05487C19.1168 9.24 18.9949 9.47614 18.9949 9.76187C18.9949 10.0122 19.1291 10.2389 19.3973 10.4424C19.6656 10.646 20.1369 10.8557 20.8118 11.0724C21.4862 11.2892 22.0406 11.5225 22.4742 11.7728C23.5288 12.3802 24.0558 13.2185 24.0558 14.2863C24.0558 15.1401 23.7342 15.8103 23.0905 16.2972C22.4468 16.7841 21.5646 17.0278 20.4429 17.0278C19.6519 17.0278 18.9359 16.8862 18.2946 16.6023C17.6537 16.3185 17.171 15.9298 16.8466 15.4358C16.5221 14.9418 16.3606 14.3732 16.3606 13.7299H18.7201C18.7201 14.2527 18.8551 14.6381 19.1258 14.8861C19.3964 15.134 19.8351 15.2582 20.4429 15.2582C20.8316 15.2582 21.1391 15.1746 21.3648 15.007C21.5901 14.8393 21.7039 14.6032 21.7039 14.2995Z" fill="#004B7F"/>
<path d="M31.3157 12.7509H27.6159V15.0835H31.9863V16.8932H25.2635V7.13413H32V8.9505H27.6163V11.0082H31.3161L31.3157 12.7509Z" fill="#004B7F"/>
<path d="M3.82286 19.0005L5.10805 23.0059L6.38897 19.0005H8.21562V24.7577H6.82384V23.4128L6.95838 20.6609L5.5666 24.7573H4.64902L3.25345 20.6566L3.38799 23.4123V24.7573H2V19L3.82286 19.0005Z" fill="#004B7F"/>
<path d="M12.3679 23.682H10.4659L10.1333 24.7578H8.65015L10.762 19.0005H12.0666L14.194 24.7578H12.7033L12.3679 23.682ZM10.798 22.6104H12.0353L11.4148 20.6136L10.798 22.6104Z" fill="#004B7F"/>
<path d="M16.7527 22.7215H16.0013V24.7576H14.6134V19.0003H16.8791C17.5618 19.0003 18.0956 19.1514 18.4803 19.4541C18.8654 19.7573 19.0582 20.1851 19.0582 20.7384C19.0582 21.1382 18.9772 21.4703 18.8147 21.7337C18.6527 21.9976 18.3988 22.2108 18.0535 22.3737L19.2553 24.6983V24.758H17.7683L16.7527 22.7215ZM16.0013 21.6532H16.8791C17.143 21.6532 17.341 21.584 17.4741 21.4452C17.6072 21.3064 17.674 21.1127 17.674 20.8644C17.674 20.6162 17.6068 20.421 17.4722 20.2794C17.3377 20.1382 17.1397 20.0676 16.8791 20.0676H16.0013V21.6532Z" fill="#004B7F"/>
<path d="M21.3752 24.7576H19.991V19.0003H21.3752V24.7576Z" fill="#004B7F"/>
<path d="M27.1484 24.7576H25.768L23.7281 21.1747V24.7576H22.3402V19.0003H23.7281L25.7642 22.5827V19.0003H27.1484V24.7576Z" fill="#004B7F"/>
<path d="M31.5969 22.3136H29.414V23.6898H31.9919V24.7576H28.026V19.0003H32V20.0719H29.414V21.2861H31.5969V22.3136Z" fill="#004B7F"/>
</svg>
